<?xml version="1.0" encoding="UTF-8" standalone="no"?>
<svg
   width="24"
   height="24"
   viewBox="0 0 24 24"
   version="1.1"
   id="svg1188"
   sodipodi:docname="email white.svg"
   inkscape:version="1.1.1 (c3084ef, 2021-09-22)"
   xmlns:inkscape="http://www.inkscape.org/namespaces/inkscape"
   xmlns:sodipodi="http://sodipodi.sourceforge.net/DTD/sodipodi-0.dtd"
   xmlns="http://www.w3.org/2000/svg"
   xmlns:svg="http://www.w3.org/2000/svg">
  <defs
     id="defs1192" />
  <sodipodi:namedview
     id="namedview1190"
     pagecolor="#ffffff"
     bordercolor="#666666"
     borderopacity="1.0"
     inkscape:pageshadow="2"
     inkscape:pageopacity="0"
     inkscape:pagecheckerboard="0"
     showgrid="false"
     inkscape:zoom="26.041667"
     inkscape:cx="6.6624"
     inkscape:cy="12.0192"
     inkscape:window-width="1892"
     inkscape:window-height="1230"
     inkscape:window-x="2005"
     inkscape:window-y="184"
     inkscape:window-maximized="0"
     inkscape:current-layer="svg1188" />
  <path
     d="m 12,0.02 c -6.627,0 -12,5.373 -12,12 0,6.627 5.373,12 12,12 6.627,0 12,-5.373 12,-12 0,-6.627 -5.373,-12 -12,-12 z M 18.99,7 12,12.666 5.009,7 Z M 19,17 H 5 V 8.495 l 7,5.673 7,-5.672 z"
     id="path1186"
     style="display:inline;fill:#ffffff" />
  <path
     style="display:inline;fill:#000000;stroke:#000000;stroke-width:0.5;stroke-linecap:round;stroke-linejoin:round;stroke-miterlimit:4;stroke-dasharray:none;stroke-opacity:1"
     d="M 12,12.666 18.99,7 H 5.009 L 12,12.666"
     id="path1227" />
  <path
     style="display:inline;fill:#000000;stroke:#000000;stroke-width:0.5;stroke-linecap:round;stroke-linejoin:round;stroke-miterlimit:4;stroke-dasharray:none;stroke-opacity:1"
     d="M 12,14.168 5,8.495 V 17 H 19 V 8.496 Z"
     id="path1262" />
  <path
     d="m 12,0.02 c -6.627,0 -12,5.373 -12,12 0,6.627 5.373,12 12,12 6.627,0 12,-5.373 12,-12 0,-6.627 -5.373,-12 -12,-12 z M 18.99,7 12,12.666 5.009,7 Z M 19,17 H 5 V 8.495 l 7,5.673 7,-5.672 z"
     id="path1603"
     style="display:none;fill:#000000;fill-opacity:1" />
</svg>
